HIERARCHY
ROOT Hips
{
	OFFSET 0.00000 0.00000 0.00000
	CHANNELS 6 Xposition Yposition Zposition Zrotation Yrotation Xrotation 
	JOINT LHipJoint
	{
		OFFSET 0 0 0
		CHANNELS 3 Zrotation Yrotation Xrotation
		JOINT LeftUpLeg
		{
			OFFSET 1.54859 -1.61379 0.86856
			CHANNELS 3 Zrotation Yrotation Xrotation
			JOINT LeftLeg
			{
				OFFSET 2.25087 -6.18423 0.00000
				CHANNELS 3 Zrotation Yrotation Xrotation
				JOINT LeftFoot
				{
					OFFSET 2.40328 -6.60297 0.00000
					CHANNELS 3 Zrotation Yrotation Xrotation
					JOINT LeftToeBase
					{
						OFFSET 0.17435 -0.47901 2.02453
						CHANNELS 3 Zrotation Yrotation Xrotation
						End Site
						{
							OFFSET 0.00000 -0.00000 1.04844
						}
					}
				}
			}
		}
	}
	JOINT RHipJoint
	{
		OFFSET 0 0 0
		CHANNELS 3 Zrotation Yrotation Xrotation
		JOINT RightUpLeg
		{
			OFFSET -1.54669 -1.61379 0.86856
			CHANNELS 3 Zrotation Yrotation Xrotation
			JOINT RightLeg
			{
				OFFSET -2.28132 -6.26789 0.00000
				CHANNELS 3 Zrotation Yrotation Xrotation
				JOINT RightFoot
				{
					OFFSET -2.51636 -6.91365 0.00000
					CHANNELS 3 Zrotation Yrotation Xrotation
					JOINT RightToeBase
					{
						OFFSET -0.15124 -0.41552 2.21090
						CHANNELS 3 Zrotation Yrotation Xrotation
						End Site
						{
							OFFSET -0.00000 -0.00000 1.13399
						}
					}
				}
			}
		}
	}
	JOINT LowerBack
	{
		OFFSET 0 0 0
		CHANNELS 3 Zrotation Yrotation Xrotation
		JOINT Spine
		{
			OFFSET -0.04287 2.26161 -0.25690
			CHANNELS 3 Zrotation Yrotation Xrotation
			JOINT Spine1
			{
				OFFSET 0.02248 2.28395 -0.10140
				CHANNELS 3 Zrotation Yrotation Xrotation
				JOINT Neck
				{
					OFFSET 0 0 0
					CHANNELS 3 Zrotation Yrotation Xrotation
					JOINT Neck1
					{
						OFFSET -0.11644 1.38496 0.11345
						CHANNELS 3 Zrotation Yrotation Xrotation
						JOINT Head
						{
							OFFSET 0.29383 1.36600 0.06642
							CHANNELS 3 Zrotation Yrotation Xrotation
							End Site
							{
								OFFSET 0.11075 1.41395 -0.00294
							}
						}
					}
				}
				JOINT LeftShoulder
				{
					OFFSET 0 0 0
					CHANNELS 3 Zrotation Yrotation Xrotation
					JOINT LeftArm
					{
						OFFSET 3.51628 0.59542 -0.30346
						CHANNELS 3 Zrotation Yrotation Xrotation
						JOINT LeftForeArm
						{
							OFFSET 4.76405 -0.00000 0.00000
							CHANNELS 3 Zrotation Yrotation Xrotation
							JOINT LeftHand
							{
								OFFSET 3.13759 -0.00000 -0.00000
								CHANNELS 3 Zrotation Yrotation Xrotation
								JOINT LeftFingerBase
								{
									OFFSET 0 0 0
									CHANNELS 3 Zrotation Yrotation Xrotation
									JOINT LeftHandIndex1
									{
										OFFSET 0.73226 -0.00000 -0.00000
										CHANNELS 3 Zrotation Yrotation Xrotation
										End Site
										{
											OFFSET 0.59037 -0.00000 -0.00000
										}
									}
								}
								JOINT LThumb
								{
									OFFSET 0 0 0
									CHANNELS 3 Zrotation Yrotation Xrotation
									End Site
									{
										OFFSET 0.59938 -0.00000 0.59938
									}
								}
							}
						}
					}
				}
				JOINT RightShoulder
				{
					OFFSET 0 0 0
					CHANNELS 3 Zrotation Yrotation Xrotation
					JOINT RightArm
					{
						OFFSET -3.30990 0.84213 -0.36430
						CHANNELS 3 Zrotation Yrotation Xrotation
						JOINT RightForeArm
						{
							OFFSET -5.10161 -0.00000 -0.00000
							CHANNELS 3 Zrotation Yrotation Xrotation
							JOINT RightHand
							{
								OFFSET -3.23267 -0.00000 -0.00000
								CHANNELS 3 Zrotation Yrotation Xrotation
								JOINT RightFingerBase
								{
									OFFSET 0 0 0
									CHANNELS 3 Zrotation Yrotation Xrotation
									JOINT RightHandIndex1
									{
										OFFSET -0.70200 -0.00000 -0.00000
										CHANNELS 3 Zrotation Yrotation Xrotation
										End Site
										{
											OFFSET -0.56597 -0.00000 -0.00000
										}
									}
								}
								JOINT RThumb
								{
									OFFSET 0 0 0
									CHANNELS 3 Zrotation Yrotation Xrotation
									End Site
									{
										OFFSET -0.57461 -0.00000 0.57461
									}
								}
							}
						}
					}
				}
			}
		}
	}
}
MOTION
Frames: 15
Frame Time: .0083333
-5.3911 13.5005 0.9203 184.9500 -53.3862 -184.8240 0.0000 0.0000 0.0000 1.9580 9.4547 -52.3966 7.3037 15.5824 50.0139 0.0525 -0.4125 4.5003 3.5520 -11.5391 -34.1205 0.0000 0.0000 0.0000 -9.6662 -1.3957 -11.9926 -12.8592 -18.7307 68.6875 -0.0005 -0.1082 -0.4815 -7.4861 15.7280 -50.6899 1.8608 3.7079 29.6931 1.0756 3.5604 11.1717 -0.9549 1.0358 -3.6636 -9.8427 2.3475 -12.0705 14.4030 4.2248 -9.7416 6.1600 2.0574 -1.3772 -0.0000 -0.0000 0.0000 -82.4305 -3.0743 21.4635 65.7195 -57.6508 -39.1383 -0.0000 0.0000 -28.8754 34.2212 17.3510 11.4660 -7.1250 0.0000 -0.0000 6.3471 50.5722 0.8746 -0.0000 -0.0000 0.0000 84.2508 13.7832 2.8567 -32.0150 42.5591 -12.7510 0.0000 -0.0000 -22.2142 -37.0097 35.0689 -23.4181 7.1250 -0.0000 -0.0000 -2.0551 11.3158 -2.4198
-5.8662 13.4546 0.9326 184.6330 -53.2741 -185.1390 0.0000 0.0000 0.0000 1.3870 9.7575 -53.3424 8.8190 16.6898 55.4620 0.0006 1.3666 1.0317 1.7664 -8.3616 -23.8179 0.0000 0.0000 0.0000 -9.9971 0.0014 -12.4946 -13.6185 -18.9942 71.0361 0.0640 -4.8344 -3.6924 -7.1564 15.4622 -49.4633 1.3309 3.7537 29.4365 1.1487 3.4969 11.1292 -0.5456 0.9974 -3.6401 -9.2438 2.1742 -13.5844 14.1994 3.8582 -7.6078 6.0133 1.9809 -0.4587 0.0000 -0.0000 0.0000 -80.8652 -2.7719 22.1068 65.8362 -57.6745 -39.2369 -0.0000 0.0000 -29.0508 33.7580 17.7854 11.5389 -7.1250 0.0000 -0.0000 5.8400 50.9872 0.8640 0.0000 -0.0000 0.0000 84.3059 12.8925 1.7723 -31.4515 42.1055 -12.3715 0.0000 -0.0000 -21.3670 -37.5627 34.9500 -23.7768 7.1250 -0.0000 -0.0000 -2.3777 11.3913 -2.8027
-6.3270 13.3894 0.9376 183.2080 -53.1098 -184.6430 0.0000 0.0000 0.0000 0.3081 9.7583 -53.2334 10.0591 17.4430 59.6858 -0.0226 2.7619 -0.2489 1.5629 -7.8893 -22.3783 0.0000 0.0000 0.0000 -10.9635 0.7542 -13.6382 -14.4300 -19.2393 73.5136 0.2055 -8.5784 -6.4247 -5.7927 14.2244 -44.1440 0.1758 3.9764 29.3397 1.0756 3.4654 11.1500 0.0454 0.9558 -3.6483 -10.4683 2.2161 -12.5874 15.4471 4.0897 -8.0388 6.6084 2.0858 -0.7971 -0.0000 -0.0000 0.0000 -79.0934 -2.6800 22.7954 65.7955 -57.6662 -39.2025 -0.0000 0.0000 -29.2474 33.9338 17.5697 11.4808 -7.1250 0.0000 -0.0000 6.0369 50.7712 0.8612 -0.0000 -0.0000 0.0000 84.3331 11.9417 0.7611 -31.1036 41.8207 -12.1388 0.0000 -0.0000 -20.9639 -38.2806 34.7282 -24.2085 7.1250 -0.0000 -0.0000 -2.8154 11.4212 -3.3207
-6.7904 13.4315 0.9422 181.6100 -52.9067 -184.1090 0.0000 0.0000 0.0000 -1.1917 9.6305 -51.8078 10.8689 17.8703 62.3551 0.0156 1.2526 -3.1633 1.8214 -8.4837 -24.1932 0.0000 0.0000 0.0000 -11.5214 0.7476 -15.0390 -15.0583 -19.4042 75.4123 0.5100 -12.8011 -7.5246 -3.7011 11.7516 -34.8588 -0.8551 4.2095 29.3760 0.9539 3.4538 11.2468 0.5037 0.9180 -3.6155 -10.2527 2.1276 -12.7073 14.9705 3.9214 -7.5760 6.4157 2.0236 -0.6154 -0.0000 0.0000 0.0000 -77.2093 -2.7777 23.5632 65.6849 -57.6437 -39.1091 -0.0000 0.0000 -29.3078 34.5732 17.1390 11.4801 -7.1250 0.0000 -0.0000 6.7214 50.3920 0.8967 -0.0000 0.0000 0.0000 84.3475 10.9091 -0.1510 -31.1418 41.8522 -12.1644 0.0000 -0.0000 -21.2094 -38.9757 34.2768 -24.4972 7.1250 -0.0000 -0.0000 -3.3054 11.2007 -3.8904
-7.2517 13.5052 0.9516 179.5960 -52.6606 -183.2870 0.0000 0.0000 0.0000 -3.3002 9.8747 -50.0879 11.4683 18.1567 64.2932 0.1007 -0.0986 -5.9576 1.3445 -7.3412 -20.7301 0.0000 0.0000 0.0000 -12.2669 0.3484 -16.5042 -15.5587 -19.5204 76.9140 0.4923 -13.4254 -10.6786 -0.7273 5.4492 -15.1943 -1.9940 4.3850 29.5280 0.6940 3.3056 11.3999 0.9127 0.8038 -3.5615 -10.8568 2.3704 -12.0542 15.1279 4.3250 -7.8967 6.5627 2.2158 -0.8789 0.0000 -0.0000 0.0000 -75.2644 -2.9601 23.9111 65.1614 -57.5354 -38.6671 -0.0000 0.0000 -28.9567 34.7859 16.5679 11.2042 -7.1250 0.0000 -0.0000 6.9636 49.7645 0.8215 0.0000 -0.0000 0.0000 84.3640 10.2670 -0.9582 -30.9152 41.6651 -12.0134 0.0000 -0.0000 -21.3903 -39.2143 33.8696 -24.4541 7.1250 -0.0000 -0.0000 -3.5435 10.8536 -4.1545
-7.7175 13.5669 0.9711 176.8340 -52.2616 -181.9710 0.0000 0.0000 0.0000 -6.0567 10.4573 -47.9098 11.9188 18.3561 65.7311 0.2056 -0.9865 -8.2730 1.5021 -7.7413 -21.9309 0.0000 0.0000 0.0000 -13.4977 -0.5373 -18.2347 -15.9614 -19.6044 78.1168 0.4698 -13.7604 -12.2112 -0.2388 3.1450 -8.6827 -3.3926 4.5760 29.7782 0.2623 3.0616 11.6151 1.3097 0.6260 -3.4723 -10.3045 2.4314 -12.7811 14.0818 4.3163 -7.0087 6.1476 2.2545 -0.4873 -0.0000 0.0000 0.0000 -73.5761 -3.1661 23.6622 64.1465 -57.3173 -37.8119 -0.0000 0.0000 -27.9668 33.8984 16.2428 10.6443 -7.1250 0.0000 -0.0000 6.0766 49.2246 0.6352 -0.0000 0.0000 0.0000 84.1682 10.1737 -1.8895 -29.8318 40.7488 -11.2997 0.0000 -0.0000 -20.8512 -38.9312 34.0374 -24.3302 7.1250 -0.0000 -0.0000 -3.3477 10.9264 -3.9276
-8.1627 13.6016 1.0054 177.5850 -51.6023 -182.9030 0.0000 0.0000 0.0000 -6.3225 11.3162 -46.7536 12.4241 18.5642 67.3270 0.3779 -2.0149 -11.0888 0.6455 -5.1398 -14.3079 0.0000 0.0000 0.0000 -11.7127 -1.3688 -20.9919 -16.3559 -19.6786 79.2902 0.3600 -13.1272 -13.1501 -0.5537 4.7668 -13.2447 -2.6676 4.3632 29.8549 0.3114 2.9780 11.5923 0.9751 0.5987 -3.4961 -10.8435 2.7915 -12.0524 13.8334 4.8578 -7.2909 6.1494 2.5190 -0.7642 0.0000 -0.0000 0.0000 -72.1202 -3.2763 23.1810 62.8728 -57.0281 -36.7415 -0.0000 0.0000 -26.6624 33.0715 15.5855 9.9238 -7.1250 0.0000 -0.0000 5.2843 48.3188 0.4338 0.0000 -0.0000 0.0000 83.7903 10.5343 -3.2567 -28.1238 39.2299 -10.2019 0.0000 -0.0000 -19.2930 -38.2979 34.7359 -24.2260 7.1250 -0.0000 -0.0000 -2.8224 11.4360 -3.3296
-8.6127 13.6284 1.0503 177.8410 -50.9554 -183.4230 0.0000 0.0000 0.0000 -6.9347 12.1817 -45.7335 12.9638 18.7690 69.0130 0.5148 -2.1326 -12.9870 1.2194 -7.0044 -19.7285 0.0000 0.0000 0.0000 -10.1236 -2.6979 -23.8727 -16.6951 -19.7361 80.2960 0.1767 -11.9971 -14.4075 -1.6171 8.0183 -22.7697 -2.0620 4.0761 29.9777 0.2285 2.7585 11.5446 0.6050 0.5057 -3.5644 -12.3652 3.1111 -11.0675 14.6325 5.4647 -7.8270 6.6437 2.8251 -1.2079 0.0000 -0.0000 0.0000 -70.6609 -3.2059 22.4992 61.3702 -56.6641 -35.4835 -0.0000 0.0000 -25.4295 32.9598 14.6370 9.3052 -7.1250 0.0000 -0.0000 5.2240 47.2014 0.2845 0.0000 -0.0000 0.0000 83.2693 10.5055 -3.6481 -26.9642 38.1450 -9.4770 0.0000 -0.0000 -18.0840 -37.8722 34.7452 -23.9045 7.1250 -0.0000 -0.0000 -2.5961 11.2874 -3.0568
-9.0576 13.6404 1.0910 177.7630 -50.3248 -183.5990 0.0000 0.0000 0.0000 -7.8131 13.1627 -44.9614 13.5570 18.9741 70.8468 0.6817 -2.6898 -14.9143 1.1888 -6.9191 -19.4758 0.0000 0.0000 0.0000 -8.4147 -4.1728 -27.0337 -17.0309 -19.7873 81.2894 0.0508 -11.2524 -15.2603 -3.2164 11.0373 -32.4059 -1.8537 3.8523 29.9958 0.2333 2.5238 11.5087 0.5661 0.3933 -3.5980 -12.6121 3.3913 -11.2684 14.0663 5.8575 -7.2585 6.5084 3.0587 -1.0656 -0.0000 0.0000 0.0000 -69.6353 -3.0186 21.5979 59.7965 -56.2555 -34.1719 -0.0000 0.0000 -24.4221 32.7588 14.2751 9.0153 -7.1250 0.0000 -0.0000 5.0460 46.7504 0.2185 -0.0000 0.0000 0.0000 82.0727 8.9148 -1.1307 -27.5096 38.6608 -9.8158 0.0000 -0.0000 -19.5068 -37.9545 33.5660 -23.3288 7.1250 -0.0000 -0.0000 -2.9560 10.0543 -3.4309
-9.4972 13.6368 1.1270 177.3020 -49.6957 -183.3140 0.0000 0.0000 0.0000 -9.0653 14.2187 -44.5573 14.2381 19.1847 72.9304 0.8290 -3.2037 -16.4205 1.1294 -6.7499 -18.9764 0.0000 0.0000 0.0000 -6.5804 -5.6467 -30.3412 -17.3068 -19.8252 82.1037 0.0017 -11.1789 -15.8887 -4.9170 13.2897 -40.4627 -1.9913 3.7112 29.8419 0.2821 2.3170 11.4708 0.7679 0.2884 -3.5746 -13.0291 3.6732 -11.1183 13.3569 6.2631 -7.0224 6.3456 3.2852 -1.0788 0.0000 -0.0000 0.0000 -69.0518 -2.8103 20.5782 58.4424 -55.8804 -33.0483 -0.0000 0.0000 -23.7489 32.6751 14.0224 8.8334 -7.1250 0.0000 -0.0000 4.9769 46.4446 0.1779 0.0000 -0.0000 0.0000 81.4785 9.5998 -2.7581 -26.2634 37.4677 -9.0474 0.0000 -0.0000 -16.9109 -37.0186 33.8671 -22.7929 7.1250 -0.0000 -0.0000 -2.3780 10.0388 -2.7583
-9.9294 13.6758 1.1582 176.8620 -49.0665 -182.9820 0.0000 0.0000 0.0000 -10.3308 15.2781 -44.2800 14.9597 19.3797 75.1152 0.8777 -2.8110 -16.9778 1.8116 -8.4620 -24.1264 0.0000 0.0000 0.0000 -4.3596 -6.5401 -34.0200 -17.4597 -19.8446 82.5541 -0.1198 -10.5690 -16.7601 -5.4284 13.8506 -42.6424 -2.0645 3.5625 29.6656 0.2327 2.1079 11.4576 0.8252 0.1844 -3.5050 -13.4418 3.9625 -10.9264 12.7665 6.6767 -6.8914 6.2178 3.5092 -1.1306 0.0000 -0.0000 0.0000 -68.3198 -2.6250 19.4717 57.3815 -55.5708 -32.1716 -0.0000 0.0000 -23.5688 33.0609 13.5286 8.6579 -7.1250 0.0000 -0.0000 5.3676 45.9284 0.1233 0.0000 -0.0000 0.0000 80.3115 9.1242 -1.3333 -26.0617 37.2696 -8.9250 0.0000 -0.0000 -17.4509 -36.5581 33.5068 -22.2618 7.1250 -0.0000 -0.0000 -2.2247 9.4897 -2.5628
-10.3451 13.7163 1.1855 176.5550 -48.3866 -182.7010 0.0000 0.0000 0.0000 -11.2280 16.2632 -44.4345 15.7889 19.5694 77.6023 0.8224 -3.2479 -16.3463 1.3486 -7.3519 -20.7623 0.0000 0.0000 0.0000 -1.5938 -7.1643 -37.5322 -17.4584 -19.8444 82.5502 -0.1527 -10.6773 -17.3252 -5.7301 14.1616 -43.8886 -1.7754 3.5625 29.6561 0.1773 2.2110 11.2777 0.5648 0.2576 -3.6921 -13.2041 3.9196 -10.8627 11.7040 6.5613 -6.3493 5.8413 3.4616 -0.9354 0.0000 -0.0000 0.0000 -67.4237 -2.4833 19.0606 56.3968 -55.2707 -31.3609 -0.0000 0.0000 -23.7777 33.3460 13.1969 8.5435 -7.1250 0.0000 -0.0000 5.6503 45.5831 0.0816 0.0000 -0.0000 0.0000 79.1981 8.0891 -0.3064 -26.1741 37.3801 -8.9931 0.0000 -0.0000 -18.1070 -36.6616 32.8843 -22.0052 7.1250 -0.0000 -0.0000 -2.4382 8.8571 -2.7868
-10.7497 13.7518 1.2049 176.2250 -47.8127 -182.2980 0.0000 0.0000 0.0000 -11.8777 17.0490 -45.0713 16.7293 19.7416 80.3975 0.6461 -3.0156 -14.4573 1.3531 -7.3636 -20.7971 0.0000 0.0000 0.0000 1.4608 -7.6229 -40.7964 -17.3113 -19.8258 82.1167 -0.1727 -10.9627 -17.9274 -5.4613 13.8852 -42.7795 -2.1008 3.3883 29.5127 -0.0163 1.8513 11.4290 0.6556 0.0592 -3.4533 -13.9765 4.6398 -9.9023 11.6675 7.5523 -7.7705 5.9075 3.9404 -1.6640 -0.0000 -0.0000 0.0000 -66.4713 -2.4055 17.0833 55.8833 -55.1092 -30.9392 -0.0000 0.0000 -24.0941 33.3148 13.1995 8.5351 -7.1250 0.0000 -0.0000 5.6205 45.5815 0.0809 -0.0000 -0.0000 0.0000 78.5157 8.3211 1.0817 -26.1813 37.3872 -8.9975 0.0000 -0.0000 -17.9789 -36.7331 32.8031 -22.0134 7.1250 -0.0000 -0.0000 -2.4972 8.7946 -2.8522
-11.1451 13.8003 1.2186 175.6990 -47.4503 -181.8200 0.0000 0.0000 0.0000 -12.4607 17.6307 -45.7944 17.6762 19.8700 83.1914 0.4065 -2.2982 -11.4682 1.4814 -7.6902 -21.7771 0.0000 0.0000 0.0000 4.4433 -7.9801 -43.9984 -17.0811 -19.7945 81.4376 -0.3370 -10.1233 -18.8947 -4.9818 13.3633 -40.7441 -2.3702 3.3029 29.5475 -0.1337 1.6366 11.4871 0.7482 -0.0608 -3.4032 -14.3529 4.9419 -9.3773 11.1883 7.9387 -8.5369 5.7869 4.1325 -2.0282 -0.0000 0.0000 0.0000 -65.7672 -2.2799 15.4696 55.8449 -55.0970 -30.9078 -0.0000 0.0000 -24.8152 33.1419 13.4162 8.6146 -7.1250 0.0000 -0.0000 5.4489 45.8093 0.1092 -0.0000 0.0000 0.0000 77.5946 7.8586 2.1698 -26.5384 37.7354 -9.2152 0.0000 -0.0000 -18.2737 -36.5642 33.1497 -22.0765 7.1250 -0.0000 -0.0000 -2.3187 9.1086 -2.6585
-11.5361 13.8338 1.2282 175.1750 -47.2007 -181.3520 0.0000 0.0000 0.0000 -12.8743 18.1560 -46.6540 18.6153 19.9540 85.9484 0.1719 -1.4364 -7.4590 2.0032 -8.8727 -25.3978 0.0000 0.0000 0.0000 7.5409 -8.2299 -46.7734 -16.6836 -19.7342 80.2621 -0.4575 -9.5334 -19.6044 -4.7636 13.1126 -39.7913 -2.7096 3.1922 29.7412 -0.2422 1.3727 11.4684 0.9048 -0.2013 -3.5107 -14.8504 5.2514 -8.9974 10.9718 8.3580 -9.0622 5.7716 4.3507 -2.3164 -0.0000 0.0000 0.0000 -64.9788 -2.0510 13.7804 55.9675 -55.1360 -31.0084 -0.0000 0.0000 -26.3591 32.7654 13.8612 8.7653 -7.1250 0.0000 -0.0000 5.0711 46.2713 0.1595 -0.0000 0.0000 0.0000 76.7479 7.4977 2.9889 -26.7402 37.9303 -9.3390 0.0000 -0.0000 -18.1756 -36.7616 33.1206 -22.2048 7.1250 -0.0000 -0.0000 -2.4324 9.1465 -2.7904
